<svg t="1710077646387" class="icon" viewBox="0 0 1024 1024" version="1.1" xmlns="http://www.w3.org/2000/svg" p-id="22348" width="30" height="30"><path d="M914.944 370.688c0-203.776-165.376-370.688-369.152-370.688S176.64 166.912 176.64 370.688c0 80.896 43.008 184.832 111.616 261.632 68.096 76.288 118.784 204.288 118.784 306.688v39.936h277.504v-39.936c0-102.4 50.688-230.4 118.272-306.688 69.12-76.8 112.128-190.464 112.128-261.632z" fill="#FFC807" p-id="22349"></path><path d="M531.456 405.504H436.224c-14.336 0-24.576-14.336-19.456-28.16l68.096-175.616c3.072-7.68 10.752-13.312 19.456-13.312H624.64c15.872 0 25.6 16.896 18.432 30.208L549.376 394.24c-3.584 6.656-10.752 11.264-17.92 11.264z" fill="#FFF8E1" p-id="22350"></path><path d="M493.056 566.272l183.808-196.608c13.824-14.848 3.584-38.912-16.896-38.912h-120.832c-10.24 0-18.944 6.656-22.016 15.872l-62.976 196.608c-7.168 23.552 22.016 40.96 38.912 23.04z" fill="#FFF8E1" p-id="22351"></path><path d="M639.488 1024H452.096c-6.656 0-12.288-4.096-15.872-11.264l-25.6-50.688H680.96l-25.6 50.688c-3.584 7.168-9.728 11.264-15.872 11.264z" fill="#455A64" p-id="22352"></path><path d="M694.784 982.528H396.288c-29.184 0-52.736-20.48-52.736-46.08v-187.904c0-25.6 23.552-46.08 52.736-46.08h298.496c29.184 0 52.736 20.48 52.736 46.08V936.96c0 25.088-23.552 45.568-52.736 45.568z" fill="#ECEFF1" p-id="22353"></path><path d="M577.536 785.408H369.664v-41.472h207.872c11.264 0 20.48 9.216 20.48 20.48 0 11.776-9.216 20.992-20.48 20.992z m-207.872 36.352h351.232v41.472H369.664v-41.472z m351.744 118.784h-195.584c-11.264 0-20.48-9.216-20.48-20.48s9.216-20.48 20.48-20.48h195.584v40.96z" fill="#CFD8DC" p-id="22354"></path></svg>
