<svg t="1710075766925" class="icon" viewBox="0 0 1024 1024" version="1.1"
    xmlns="http://www.w3.org/2000/svg" p-id="8110" width="20" height="20">
    <path d="M263.68 99.84zM1018.88 212.48c0 1.28 0 1.28 0 0 0 1.28 0 1.28 0 0z" fill="#ffffff"
        p-id="8111"></path>
    <path
        d="M111.36 980.48c0-24.32 19.2-43.52 43.52-43.52h710.4c24.32 0 43.52 19.2 43.52 43.52S889.6 1024 865.28 1024H156.16c-24.32 0-44.8-19.2-44.8-43.52zM1011.2 409.6c3.84-11.52 2.56-24.32-2.56-35.84v-1.28c-6.4-11.52-17.92-20.48-32-23.04-15.36-2.56-29.44 2.56-39.68 14.08L765.44 486.4 546.56 241.92l-5.12-5.12c-17.92-16.64-46.08-14.08-62.72 3.84L259.84 487.68 87.04 364.8c-10.24-10.24-24.32-15.36-39.68-12.8-19.2 2.56-33.28 17.92-35.84 35.84-1.28 6.4-1.28 14.08 1.28 20.48l93.44 428.8c0 5.12 1.28 11.52 3.84 16.64 7.68 19.2 26.88 30.72 48.64 26.88 1.28 0 2.56 0 5.12-1.28h710.4c14.08 0 26.88-6.4 34.56-17.92 5.12-5.12 7.68-12.8 8.96-20.48L1011.2 409.6z m0 0"
        p-id="8112" fill="#ffffff"></path>
    <path
        d="M512 0c-74.24 0-134.4 60.16-134.4 134.4S437.76 268.8 512 268.8s134.4-60.16 134.4-134.4S586.24 0 512 0z m0 0"
        p-id="8113" fill="#ffffff"></path>
</svg>